<svg width="60" height="60" viewBox="0 0 60 60" xmlns="http://www.w3.org/2000/svg">
  <path d="M30,50 L37.65367,48.47759 L44.14214,44.14214 L48.47759,37.65367 L50,30 L48.47759,22.34633 L44.14214,15.85786 L37.65367,11.52241 L30,10 L22.34633,11.52241 L15.85786,15.85786 L11.52241,22.34633 L10,30 L11.52241,37.65367 L15.85786,44.14214 L22.34633,48.47759 Z" stroke="yellow" stroke-width=".2" fill="none" />
  <circle cx="30" cy="50" r=".4" fill="yellow" />
  <circle cx="37.65367" cy="48.47759" r=".4" fill="yellow" />
  <circle cx="44.14214" cy="44.14214" r=".4" fill="yellow" />
  <circle cx="48.47759" cy="37.65367" r=".4" fill="yellow" />
  <circle cx="50" cy="30" r=".4" fill="yellow" />
  <circle cx="48.47759" cy="22.34633" r=".4" fill="yellow" />
  <circle cx="44.14214" cy="15.85786" r=".4" fill="yellow" />
  <circle cx="37.65367" cy="11.52241" r=".4" fill="yellow" />
  <circle cx="30" cy="10" r=".4" fill="yellow" />
  <circle cx="22.34633" cy="11.52241" r=".4" fill="yellow" />
  <circle cx="15.85786" cy="15.85786" r=".4" fill="yellow" />
  <circle cx="11.52241" cy="22.34633" r=".4" fill="yellow" />
  <circle cx="10" cy="30" r=".4" fill="yellow" />
  <circle cx="11.52241" cy="37.65367" r=".4" fill="yellow" />
  <circle cx="15.85786" cy="44.14214" r=".4" fill="yellow" />
  <circle cx="22.34633" cy="48.47759" r=".4" fill="yellow" />
</svg>